<?xml version="1.0" encoding="UTF-8" standalone="no"?>
<!-- Created with Inkscape (http://www.inkscape.org/) -->

<svg
   xmlns:dc="http://purl.org/dc/elements/1.1/"
   xmlns:cc="http://creativecommons.org/ns#"
   xmlns:rdf="http://www.w3.org/1999/02/22-rdf-syntax-ns#"
   xmlns:svg="http://www.w3.org/2000/svg"
   xmlns="http://www.w3.org/2000/svg"
   xmlns:sodipodi="http://sodipodi.sourceforge.net/DTD/sodipodi-0.dtd"
   xmlns:inkscape="http://www.inkscape.org/namespaces/inkscape"
   width="250"
   height="250"
   viewBox="0 0 66.145832 66.145835"
   version="1.1"
   id="svg8"
   inkscape:version="0.92.1 r15371"
   sodipodi:docname="all_icons.svg">
  <defs
     id="defs2" />
  <sodipodi:namedview
     id="base"
     pagecolor="#ffffff"
     bordercolor="#666666"
     borderopacity="1.0"
     inkscape:pageopacity="0.0"
     inkscape:pageshadow="2"
     inkscape:zoom="3.81"
     inkscape:cx="130.90263"
     inkscape:cy="122.16129"
     inkscape:document-units="mm"
     inkscape:current-layer="layer10"
     showgrid="true"
     units="px"
     inkscape:measure-start="0,0"
     inkscape:measure-end="0,0"
     inkscape:window-width="1920"
     inkscape:window-height="1137"
     inkscape:window-x="-8"
     inkscape:window-y="-8"
     inkscape:window-maximized="1">
    <inkscape:grid
       type="xygrid"
       id="grid4486" />
  </sodipodi:namedview>
  <metadata
     id="metadata5">
    <rdf:RDF>
      <cc:Work
         rdf:about="">
        <dc:format>image/svg+xml</dc:format>
        <dc:type
           rdf:resource="http://purl.org/dc/dcmitype/StillImage" />
        <dc:title></dc:title>
      </cc:Work>
    </rdf:RDF>
  </metadata>
  <g
     inkscape:groupmode="layer"
     id="layer2"
     inkscape:label="saucepan"
     transform="translate(0,-230.85415)"
     style="display:none">
    <path
       id="path5315-5"
       style="display:inline;fill:#000000;fill-opacity:1;stroke:#000000;stroke-width:0.26458332px;stroke-linecap:butt;stroke-linejoin:miter;stroke-opacity:1"
       d="m 25.135416,253.34373 c 0.584139,0.74998 1.826742,0.893 1.322917,2.64584 -2.18131,1.78564 -0.510103,2.67045 -1.322917,3.96875 1.322916,-1.32292 0,-2.64584 2.645834,-3.96875 0.876162,-0.87964 0.01039,-1.76157 -2.645834,-2.64584 z m -6.614583,0 c 0.584139,0.74998 1.826742,0.893 1.322917,2.64584 -2.18131,1.78564 -0.510103,2.67045 -1.322917,3.96875 1.322916,-1.32292 0,-2.64584 2.645834,-3.96875 0.876162,-0.87964 0.01039,-1.76157 -2.645834,-2.64584 z m 17.780001,9.15459 h 20.954999 v 1.905 H 36.300834 Z m -26.6700007,1e-5 c 33.2680087,9e-5 15.8749997,-1e-5 26.6700007,-1e-5 v 11.43 l -1.905001,1.905 h -22.86 l -1.9049997,-1.90499 z"
       inkscape:connector-curvature="0" />
  </g>
  <g
     inkscape:groupmode="layer"
     id="layer3"
     inkscape:label="bowl"
     style="display:none">
    <path
       id="path4519"
       style="fill:#000000;fill-opacity:1;stroke:#000000;stroke-width:0.77589154px;stroke-linecap:butt;stroke-linejoin:miter;stroke-opacity:1"
       d="m 21.710724,55.367784 v 5.486383 0 H 43.65625 V 55.367784 Z M 2.6458333,15.875 62.858584,15.348124 V 37.877796 C 58.625674,47.237168 47.027461,50.069238 42.333333,52.916667 H 22.489583 C 17.788292,50.073588 6.724156,47.212582 2.5083873,37.877796 Z"
       inkscape:connector-curvature="0" />
  </g>
  <g
     inkscape:groupmode="layer"
     id="layer4"
     inkscape:label="frying pan"
     style="display:none">
    <path
       id="path4525-0"
       style="fill:#000000;fill-opacity:1;stroke:#000000;stroke-width:0.26458332px;stroke-linecap:butt;stroke-linejoin:miter;stroke-opacity:1"
       d="m 31.75,31.75 c -0.265151,-1.304503 -2.868389,-2.44664 0,-3.96875 1.358792,-1.501698 -2.388015,-2.663021 -3.96875,-3.96875 2.303301,0.725799 5.109283,1.306085 5.291667,2.645833 1.134771,2.879519 -1.322917,0 -1.322917,5.291667 z m -9.260417,-1.322916 c -0.265151,-1.304503 -2.868389,-2.44664 0,-3.96875 1.358792,-1.501698 -2.388015,-2.663021 -3.96875,-3.96875 2.303301,0.725799 5.109283,1.306085 5.291667,2.645833 1.134771,2.879519 -1.322917,0 -1.322917,5.291667 z m -7.9375,5.291666 c -0.265151,-1.304503 -2.868389,-2.44664 0,-3.96875 1.358792,-1.501698 -2.388015,-2.663021 -3.96875,-3.96875 2.303301,0.725799 5.109283,1.306085 5.291667,2.645833 1.134771,2.879519 -1.322917,0 -1.322917,5.291667 z m 32.730033,-5.009724 14.160821,-3.351753 0.304705,1.287348 -14.160821,3.351753 z M 4.7996499,40.764285 47.282116,30.709026 l 0.914114,3.862043 -4.53998,3.793514 -32.183686,7.61762 -5.7587997,-1.355876 z"
       inkscape:connector-curvature="0" />
  </g>
  <g
     inkscape:groupmode="layer"
     id="layer5"
     inkscape:label="piping bag"
     style="display:none">
    <path
       id="path4554"
       style="fill:#000000;fill-opacity:1;stroke:#000000;stroke-width:0.28485787px;stroke-linecap:butt;stroke-linejoin:miter;stroke-opacity:1"
       d="m 19.068201,43.220945 -0.303559,3.499786 1.821564,-0.952972 0.404817,2.015533 2.529937,-2.437225 z M 20.417443,36.57556 23.554283,7.0930189 50.270833,19.84375 27.838707,40.11743 Z m -0.708373,1.484253 0.0675,3.67688 4.452759,2.125121 2.901,-2.260133 z"
       inkscape:connector-curvature="0" />
    <path
       style="fill:none;stroke:#000000;stroke-width:0.92604166;stroke-linecap:butt;stroke-linejoin:miter;stroke-miterlimit:4;stroke-dasharray:none;stroke-opacity:1"
       d="m 19.145675,48.340566 1.40968,3.289255 c 1.231961,1.674877 0,3.289256 -2.819361,3.289256 1.40968,0 3.102885,1.010457 4.229043,-1.644627 l 1.409681,4.933882 H 12.097271 c 1.977822,-4.06796 2.432988,-4.965452 4.229043,-6.57851 l 1.40968,1.644627 c -2.819362,-4.933881 1.652835,-2.759216 1.409681,-4.933883 z"
       id="path4556"
       inkscape:connector-curvature="0"
       sodipodi:nodetypes="ccccccccc" />
  </g>
  <g
     inkscape:groupmode="layer"
     id="layer8"
     inkscape:label="chefs knife"
     style="display:none">
    <path
       style="fill:#000000;fill-opacity:1;stroke:#000000;stroke-width:0.28071687px;stroke-linecap:butt;stroke-linejoin:miter;stroke-opacity:1"
       d="M 3.8163629,39.229068 61.71384,22.18492 l 0.792752,2.692907 -18.850342,5.549256 1.981877,6.732266 C 12.457833,47.505298 6.9833866,41.421541 3.8163629,39.229068 Z"
       id="path4558"
       inkscape:connector-curvature="0"
       sodipodi:nodetypes="cccccc" />
  </g>
  <g
     inkscape:groupmode="layer"
     id="layer12"
     inkscape:label="bake in box"
     style="display:none">
    <path
       id="path4568-0"
       style="fill:#000000;fill-opacity:1;stroke:#000000;stroke-width:0.26458332px;stroke-linecap:butt;stroke-linejoin:miter;stroke-opacity:1"
       d="m 33.072917,27.78125 c -2.645833,-2.645833 0.783756,-4.809649 0,-6.614583 -1.719253,-2.414728 -1.900057,-3.931167 -2.645833,-6.614584 1.512262,3.455351 3.96875,3.96875 3.96875,7.9375 -1.22524,1.638627 -2.645833,2.645834 -1.322917,5.291667 z M 43.65625,31.75 c -2.645833,-2.645833 0.783756,-4.809649 0,-6.614583 -1.719253,-2.414728 -1.900057,-3.931167 -2.645833,-6.614584 1.512262,3.455351 3.96875,3.96875 3.96875,7.9375 -1.22524,1.638627 -2.645833,2.645834 -1.322917,5.291667 z m -21.166667,0 c -2.645833,-2.645833 0.783756,-4.809649 0,-6.614583 -1.719253,-2.414728 -1.900057,-3.931167 -2.645833,-6.614584 1.512262,3.455351 3.96875,3.96875 3.96875,7.9375 C 22.58726,28.09696 21.166667,29.104167 22.489583,31.75 Z M 39.6875,41.010417 v 2.645833 h 3.96875 v -2.645833 z m -18.520833,-10e-7 v 2.645833 h 3.96875 V 41.010416 Z M 11.90625,34.395833 13.229167,33.072916 H 51.59375 l 1.322916,1.322917 V 39.6875 L 51.59375,41.010416 H 13.229167 L 11.90625,39.6875 Z"
       inkscape:connector-curvature="0" />
  </g>
  <g
     inkscape:groupmode="layer"
     id="layer6"
     inkscape:label="oven"
     style="display:none">
    <path
       id="path4645"
       style="fill:#000000;fill-opacity:1;stroke:#000000;stroke-width:0.32404709px;stroke-linecap:butt;stroke-linejoin:miter;stroke-opacity:1"
       d="m 26.458334,17.197917 v 3.96875 h 10.583333 v -3.96875 z m -9.260417,5.291666 c 10.711321,1e-6 19.270697,1e-6 27.78125,0 z m 23.8125,-5.291666 -1.322918,1.322916 v 1.322917 l 1.322918,1.322917 h 1.322917 L 43.65625,19.84375 v -1.322917 l -1.322916,-1.322916 z m -19.84375,0 -1.322917,1.322916 v 1.322917 l 1.322917,1.322917 h 1.322917 L 23.8125,19.84375 v -1.322917 l -1.322916,-1.322916 z m -4.497918,6.614583 -1.058333,0.974782 v 16.57127 l 1.058333,0.974781 h 29.633334 l 1.058333,-0.974781 V 24.787282 L 46.302083,23.8125 Z M 10.583334,14.552083 H 52.916667 V 44.979167 H 10.583334 Z"
       inkscape:connector-curvature="0" />
  </g>
  <g
     inkscape:groupmode="layer"
     id="layer14"
     inkscape:label="done"
     style="display:none">
    <path
       style="fill:#030303;fill-opacity:1;stroke:#000000;stroke-width:0.26458332px;stroke-linecap:butt;stroke-linejoin:miter;stroke-opacity:1"
       d="M 7.9374999,30.427083 27.78125,43.65625 C 35.71875,26.458333 47.672246,20.018352 58.208333,10.583333 46.635148,23.024804 36.987366,37.183733 29.104166,52.916666 Z"
       id="path4648"
       inkscape:connector-curvature="0"
       sodipodi:nodetypes="ccccc" />
  </g>
  <g
     inkscape:groupmode="layer"
     id="layer7"
     inkscape:label="kitchen machine"
     style="display:none">
    <path
       id="path5371"
       style="fill:#000000;fill-opacity:1;stroke:#000000;stroke-width:0.21603139px;stroke-linecap:butt;stroke-linejoin:miter;stroke-opacity:1"
       d="m 17.197916,18.520833 v 2.645834 h 7.9375 v -2.645834 z m 22.489584,0 H 7.9374999 L 3.96875,15.875 V 9.2604166 L 7.9374999,6.6145832 H 52.916666 l 2.645833,2.6458334 V 56.885416 H 3.96875 v -2.645833 l 1.3229166,-2.645834 h 3.96875 l 1.3229164,2.645834 H 33.072916 L 39.6875,48.947916 Z M 8.6377128,21.166667 H 34.395833 v 19.148692 c -1.810775,8.145316 -6.77232,10.610023 -8.780397,13.088095 H 17.126574 C 15.115432,50.929168 10.382358,48.439279 8.5789153,40.315359 Z"
       inkscape:connector-curvature="0" />
    <path
       style="fill:#ffffff;fill-opacity:1;stroke:#000000;stroke-width:0.44097221px;stroke-linecap:butt;stroke-linejoin:miter;stroke-opacity:1"
       d="m 46.302083,37.041667 h 2.204861 l 2.20486,2.204861 v 2.20486 l -2.20486,2.204862 h -2.204861 l -2.204862,-2.204862 v -2.20486 z"
       id="path5373"
       inkscape:connector-curvature="0" />
  </g>
  <g
     inkscape:groupmode="layer"
     id="layer13"
     inkscape:label="pour from bowl"
     style="display:none">
    <path
       id="path5417"
       style="fill:#000000;fill-opacity:1;stroke:#000000;stroke-width:0.29967904px;stroke-linecap:butt;stroke-linejoin:miter;stroke-opacity:1"
       d="m 25.464409,14.8937 2.996791,5.993582 c 3.694147,1.465556 6.055007,5.24048 5.993581,8.990372 h 22.47593 C 51.284178,19.751244 40.065064,14.60701 25.464409,14.8937 Z M 6.1870634,16.647806 4.0665671,17.648875 v 0 l 4.0042734,8.481986 2.1204955,-1.00107 z M 17.972434,2.0731736 29.162744,25.249371 20.454986,29.360229 c -4.38977,0.07172 -7.600629,-3.894254 -9.557675,-5.188989 L 7.2765379,16.501595 C 7.517575,14.165778 6.6045508,9.3674398 9.4432351,6.0347726 Z M 33.921485,60.025482 v 3.756608 0 H 48.947917 V 60.025482 Z M 20.867469,32.98418 62.096042,32.62342 V 48.049824 C 59.197704,54.458327 51.256235,56.397488 48.042095,58.347165 H 34.454781 C 31.235738,56.400466 23.659959,54.441494 20.773357,48.049824 Z"
       inkscape:connector-curvature="0" />
  </g>
  <g
     inkscape:groupmode="layer"
     id="layer9"
     inkscape:label="spreading knife" />
  <g
     inkscape:groupmode="layer"
     id="layer10"
     inkscape:label="cookie cutter"
     style="display:none">
    <path
       style="fill:#000000;fill-opacity:1;stroke:#000000;stroke-width:1.15377533px;stroke-linecap:butt;stroke-linejoin:miter;stroke-opacity:1"
       d="m 39.744141,14.507812 c -2.979311,0.04906 -5.195677,0.57068 -6.277344,1.652344 C 22.303362,27.028891 10.391279,33.467467 16.160156,56.542969 27.69791,91.156237 4.6230469,108.4616 4.6230469,131.53711 2.7595587,158.7672 39.236328,183.45835 39.236328,212.30273 c -4.609867,24.50136 5.073431,32.66291 40.38086,11.53711 44.674772,-20.6767 98.071622,28.84438 109.609372,-17.30664 11.53776,-34.61326 5.76952,-63.45834 -11.53711,-74.99609 C 162.09064,116.77425 177.68879,79.618487 154.61328,73.849609 137.30665,68.080739 120.7725,77.669417 102.69336,62.310547 96.004208,56.174582 102.69401,45.00455 91.15625,33.466797 79.88797,22.964059 52.654493,14.295244 39.744141,14.507812 Z m 96.921879,62.158204 h 11.66796 L 160,88.333984 V 100 l -11.66602,11.66602 H 136.66602 L 125,100 V 88.333984 Z M 145,120 h 11.66602 l 11.66796,11.66602 v 11.66796 L 156.66602,155 H 145 l -11.66602,-11.66602 v -11.66796 z"
       transform="scale(0.26458333)"
       id="path10941"
       inkscape:connector-curvature="0" />
    <path
       style="fill:#000000;fill-opacity:1;stroke:#000000;stroke-width:0.30868056px;stroke-linecap:butt;stroke-linejoin:miter;stroke-opacity:1"
       d="m 54.239583,15.875 h 3.086807 l 3.086805,3.086806 v 3.086807 l -3.086805,3.086805 h -3.086807 l -3.086805,-3.086805 v -3.086807 z"
       id="path10945"
       inkscape:connector-curvature="0" />
    <path
       style="fill:#000000;fill-opacity:1;stroke:#000000;stroke-width:0.30868056px;stroke-linecap:butt;stroke-linejoin:miter;stroke-opacity:1"
       d="m 48.065971,5.732637 h 3.086807 l 3.086805,3.086806 v 3.086807 l -3.086805,3.086805 H 48.065971 L 44.979166,11.90625 V 8.819443 Z"
       id="path10945-2"
       inkscape:connector-curvature="0" />
  </g>
  <g
     inkscape:groupmode="layer"
     id="layer11"
     inkscape:label="spoon" />
</svg>
